<?xml version="1.0" encoding="UTF-8"?>
<svg version="1.1" xmlns="http://www.w3.org/2000/svg" width="512" height="512">
<path d="M0 0 C1.70630139 1.67602055 3.43243013 3.32916294 5.16308594 4.97998047 C12.26417149 11.82542281 18.55687438 19.05454605 24.44238281 26.96728516 C25.28346957 28.09785336 26.13084357 29.22377968 26.98535156 30.34423828 C64.45402251 79.48104527 78.41788919 142.94072292 70.33837891 203.671875 C67.20361072 224.8524466 61.29031726 245.10003544 52.73339844 264.70263672 C52.4164502 265.43820801 52.09950195 266.1737793 51.77294922 266.93164062 C41.22957818 291.1721023 25.95477178 313.15273918 7.43603516 331.96923828 C5.7600146 333.67553967 4.10687222 335.40166841 2.45605469 337.13232422 C-4.38938765 344.23340978 -11.61851089 350.52611267 -19.53125 356.41162109 C-20.6618182 357.25270785 -21.78774452 358.10008185 -22.90820312 358.95458984 C-71.28663418 395.8449705 -134.20658467 410.3746928 -194.1105957 402.50512695 C-243.20070797 395.57024589 -289.05934811 374.31777094 -324.53320312 339.40527344 C-326.23950452 337.72925289 -327.96563326 336.0761105 -329.69628906 334.42529297 C-336.79737462 327.57985063 -343.09007751 320.35072739 -348.97558594 312.43798828 C-349.81667269 311.30742008 -350.6640467 310.18149376 -351.51855469 309.06103516 C-388.31411298 260.80695515 -402.59528691 198.46620736 -395.26660156 138.70263672 C-392.25812718 116.4830639 -386.22843033 95.23282518 -377.26660156 74.70263672 C-376.94965332 73.96706543 -376.63270508 73.23149414 -376.30615234 72.47363281 C-366.18665209 49.20770039 -351.65223173 27.44466936 -333.86767578 9.33447266 C-332.12318838 7.55646811 -330.40078994 5.75828331 -328.67675781 3.96044922 C-321.24366257 -3.71139434 -313.56542247 -10.69344058 -304.96972656 -17.03857422 C-303.30625225 -18.26805724 -301.66132605 -19.51952541 -300.01660156 -20.77392578 C-225.51242137 -76.68808809 -117.72435637 -79.56871548 0 0 Z " fill="#4F9FD7" transform="translate(418.2666015625,86.29736328125)"/>
<path d="M0 0 C77.88 0 155.76 0 236 0 C236 59.4 236 118.8 236 180 C158.12 180 80.24 180 0 180 C0 120.6 0 61.2 0 0 Z " fill="#304651" transform="translate(138,194)"/>
<path d="M0 0 C3.92336812 3.31257107 7.76933085 6.64434628 11.40365601 10.27667236 C12.20276398 11.07296051 13.00187195 11.86924866 13.82519531 12.68966675 C15.10354248 13.97105026 15.10354248 13.97105026 16.40771484 15.27832031 C17.78209213 16.65006912 17.78209213 16.65006912 19.18423462 18.04953003 C21.67787349 20.53864176 24.16837736 23.03086759 26.65816069 25.52383518 C29.26935299 28.1375718 31.88299842 30.74885358 34.49624634 33.36053467 C38.87738875 37.73986303 43.25642978 42.12128432 47.63427734 46.50390625 C52.69769753 51.57278459 57.764733 56.63802757 62.83362806 61.70143056 C67.19142772 66.05469754 71.54728239 70.40990347 75.90150607 74.76674724 C78.49990645 77.36670735 81.0989796 79.96598524 83.69981003 82.56351471 C86.59228826 85.45257715 89.48067652 88.34569466 92.36865234 91.23925781 C93.23302917 92.10161041 94.09740601 92.96396301 94.98797607 93.85244751 C96.16125961 95.02996078 96.16125961 95.02996078 97.35824585 96.23126221 C98.04142065 96.91481403 98.72459545 97.59836586 99.42847252 98.30263138 C105.80394036 105.18861918 103.13321297 122.72637679 102.91113281 131.51806641 C101.55516111 161.9324254 95.18275428 191.09116041 83 219 C82.68305176 219.73557129 82.36610352 220.47114258 82.03955078 221.22900391 C71.49617974 245.46946558 56.22137334 267.45010246 37.70263672 286.26660156 C36.02661617 287.97290296 34.37347378 289.69903169 32.72265625 291.4296875 C25.87721391 298.53077306 18.64809067 304.82347595 10.73535156 310.70898438 C9.60478336 311.55007113 8.47885704 312.39744514 7.35839844 313.25195312 C-33.38319626 344.31895766 -83.25988424 358.42166814 -134 359 C-134.94842773 359.01611328 -135.89685547 359.03222656 -136.87402344 359.04882812 C-139.58518038 359.07713815 -142.28926479 359.04992521 -145 359 C-145.79422363 359.00741211 -146.58844727 359.01482422 -147.40673828 359.02246094 C-151.83263951 358.85759114 -154.379764 358.03820482 -157.67346191 355.03038025 C-158.36966141 354.39508329 -159.0658609 353.75978634 -159.78315735 353.10523796 C-163.76451137 349.32432116 -167.6629881 345.4669198 -171.53710938 341.57641602 C-172.91411514 340.19962929 -172.91411514 340.19962929 -174.31893921 338.79502869 C-176.81236447 336.30188792 -179.30271521 333.80569715 -181.79248619 331.30890775 C-184.40383443 328.6912676 -187.01805396 326.07649806 -189.63195801 323.46141052 C-194.57069025 318.51958207 -199.50686993 313.57521224 -204.44211626 308.62990278 C-210.06535381 302.99545075 -215.69146363 297.36387043 -221.31780529 291.73251832 C-232.88171457 280.15818339 -244.44204804 268.58028389 -256 257 C-253.25836041 256.08612014 -251.68604427 255.87759701 -248.8682127 255.88533211 C-248.02295802 255.88519116 -247.17770334 255.8850502 -246.30683488 255.88490498 C-245.37805663 255.88986418 -244.44927839 255.89482338 -243.49235535 255.89993286 C-242.01253102 255.90182627 -242.01253102 255.90182627 -240.50281125 255.90375793 C-237.18177808 255.90915527 -233.86080879 255.92168256 -230.53979492 255.93408203 C-228.16488237 255.9392729 -225.78996872 255.9439815 -223.41505432 255.94824219 C-218.29295551 255.95819778 -213.17087481 255.97105289 -208.04878807 255.98596573 C-199.95231851 256.00932752 -191.85584771 256.02233662 -183.75935364 256.03366089 C-180.98950092 256.03766244 -178.21964831 256.04173113 -175.44979572 256.04582024 C-174.75756269 256.04683946 -174.06532965 256.04785869 -173.35211986 256.04890881 C-165.47131568 256.06065322 -157.59051575 256.07453122 -149.7097168 256.08935547 C-148.98925839 256.0907079 -148.26879998 256.09206033 -147.5265095 256.09345375 C-135.8521896 256.11563268 -124.17789852 256.14550147 -112.50360151 256.17732288 C-100.51857392 256.20971184 -88.53356139 256.23058058 -76.54849511 256.24159515 C-69.81897953 256.2481714 -63.08956821 256.26043743 -56.36009789 256.28662491 C-50.03100866 256.31085118 -43.70204942 256.32127002 -37.37291527 256.32102966 C-35.04850126 256.32345488 -32.7240861 256.33104829 -30.39970779 256.34415817 C-27.22917164 256.36129621 -24.05916022 256.35997652 -20.88859558 256.35403442 C-19.9665095 256.36345507 -19.04442342 256.37287571 -18.09439534 256.38258183 C-12.9729851 256.35042467 -9.4281357 255.86409453 -5 253 C-1.38134454 249.08794004 0.12575952 246.11138421 0.12304783 240.80460072 C0.12503888 239.94519565 0.12702993 239.08579059 0.12908131 238.20034295 C0.12471205 236.78352724 0.12471205 236.78352724 0.12025452 235.33808899 C0.12110894 234.33505539 0.12196337 233.33202178 0.12284368 232.29859322 C0.12449685 228.92210739 0.11897974 225.54567074 0.11352539 222.16918945 C0.11324346 219.75498455 0.11340137 217.34077956 0.1139679 214.92657471 C0.11419595 209.72098117 0.11135106 204.51539885 0.10573006 199.30980873 C0.09760827 191.78336899 0.09499914 184.25693531 0.09374207 176.73049166 C0.09155262 164.51978723 0.08489542 152.30908948 0.07543945 140.09838867 C0.06626258 128.2357588 0.05918309 116.37313075 0.05493164 104.51049805 C0.05466892 103.7794723 0.05440619 103.04844655 0.05413551 102.29526851 C0.05283049 98.62798297 0.05156677 94.96069742 0.05032361 91.29341185 C0.03995432 60.86226979 0.02226465 30.43113582 0 0 Z " fill="#488FC2" transform="translate(388,132)"/>
<path d="M0 0 C1.26603193 -0.00761181 1.26603193 -0.00761181 2.55764025 -0.0153774 C3.48505426 -0.01587516 4.41246827 -0.01637292 5.36798573 -0.01688576 C6.35312414 -0.02126801 7.33826256 -0.02565027 8.35325366 -0.03016531 C11.66959305 -0.04356925 14.98590585 -0.04973577 18.30226612 -0.0558567 C20.67393585 -0.0637564 23.04560437 -0.07202526 25.41727161 -0.08063698 C32.54551593 -0.1046066 39.67376554 -0.11978691 46.80203673 -0.13269705 C48.8156966 -0.13640961 50.82935578 -0.14038279 52.84301496 -0.14444971 C65.3501169 -0.16968696 77.85721995 -0.19173799 90.36434174 -0.20417786 C93.26096761 -0.20710751 96.15759345 -0.21006918 99.05421925 -0.21308327 C100.13411993 -0.21420234 100.13411993 -0.21420234 101.23583678 -0.21534403 C112.89592989 -0.22799517 124.55587042 -0.26121545 136.21589222 -0.3028851 C148.18963824 -0.34532479 160.16330619 -0.36887523 172.13712722 -0.37409842 C178.8589361 -0.37751026 185.58050654 -0.38923824 192.30224133 -0.42220116 C198.62650364 -0.45224295 204.95035028 -0.45860713 211.27466869 -0.4468174 C213.59502174 -0.44659634 215.91539385 -0.45492758 218.23568058 -0.47247124 C221.40585298 -0.49513482 224.57451456 -0.48687972 227.74469471 -0.47098732 C228.66095511 -0.48486941 229.5772155 -0.49875149 230.52124137 -0.51305425 C236.78056612 -0.43584471 241.16168758 0.90225927 245.87379932 5.13701439 C250.37394924 10.20565965 250.44320172 15.61394184 250.37500477 22.12567711 C250.38053917 23.11564436 250.38607356 24.10561161 250.39177567 25.12557787 C250.40536143 28.43441623 250.39042374 31.74249761 250.37550831 35.05132103 C250.3792922 37.42682783 250.38479281 39.80233242 250.39188099 42.17783165 C250.40439357 47.95487039 250.39827283 53.73166749 250.38320541 59.50869567 C250.36632131 66.23911617 250.36955854 72.96948247 250.37329949 79.69991761 C250.3791742 91.7096744 250.36502121 103.71932626 250.34035206 115.7290554 C250.31642705 127.37785843 250.30935036 139.02652128 250.31984425 150.67534447 C250.33125741 163.36731837 250.33317902 176.05922749 250.31874615 188.75120062 C250.31722034 190.10489205 250.31569999 191.45858349 250.31418514 192.81227493 C250.31342733 193.47828043 250.31266951 194.14428593 250.31188874 194.83047341 C250.3071494 199.52005126 250.30899482 204.20960015 250.31325054 208.89917755 C250.31801975 215.21195296 250.30792066 221.52453418 250.28629589 227.83727264 C250.28072738 230.15522163 250.2802633 232.47318928 250.28524876 234.7911396 C250.29119644 237.9527543 250.27870579 241.11377422 250.26147938 244.27533531 C250.27049445 245.65437171 250.27049445 245.65437171 250.27969164 247.06126744 C250.22196962 252.87872365 249.45503348 257.30706757 245.37379932 261.78154564 C241.43727001 264.84670779 238.70364567 266.25997867 233.74201202 266.26844215 C232.89675734 266.2722833 232.05150266 266.27612444 231.1806342 266.28008199 C230.25185596 266.27921551 229.32307771 266.27834902 228.36615467 266.27745628 C227.37960512 266.28042741 226.39305557 266.28339853 225.37661058 266.28645968 C222.05559665 266.29516323 218.73461869 266.29665633 215.41359425 266.2981472 C213.03867992 266.30277418 210.66376635 266.30779868 208.28885365 266.31319237 C201.82602594 266.32632944 195.36320513 266.33280038 188.90036654 266.33720303 C184.86516072 266.33996542 180.82995728 266.34420277 176.79475307 266.3487072 C165.62304777 266.3608998 154.45134438 266.37119917 143.27963257 266.37458229 C142.20706179 266.37491164 142.20706179 266.37491164 141.11282291 266.37524764 C140.03768237 266.37557506 140.03768237 266.37557506 138.94082183 266.37590909 C137.48838659 266.37635256 136.03595136 266.37679912 134.58351612 266.37724876 C133.86305771 266.37747019 133.14259931 266.37769162 132.40030883 266.37791976 C120.72597732 266.38186788 109.05170823 266.39932235 97.37740084 266.42260829 C85.39236288 266.44632111 73.40735624 266.45878411 61.42229444 266.45995021 C54.69279412 266.460867 47.96337513 266.46662039 41.23389721 266.48476982 C34.90478939 266.50121354 28.57583612 266.50342394 22.24671459 266.49463081 C19.9223079 266.49385847 17.59789303 266.49822898 15.27350712 266.50808907 C12.10295095 266.52075102 8.93294687 266.51496279 5.76239491 266.50450706 C4.37926579 266.51659167 4.37926579 266.51659167 2.96819466 266.52892041 C-2.86086258 266.48389219 -7.28657025 265.7270811 -11.77073193 261.63701439 C-14.83589408 257.70048507 -16.24916496 254.96686074 -16.25762844 250.00522709 C-16.26146959 249.15997241 -16.26531073 248.31471773 -16.26926827 247.44384927 C-16.26840179 246.51507102 -16.26753531 245.58629278 -16.26664257 244.62936974 C-16.26961369 243.64282018 -16.27258482 242.65627063 -16.27564597 241.63982564 C-16.28434952 238.31881171 -16.28584262 234.99783376 -16.28733349 231.67680931 C-16.29196047 229.30189499 -16.29698497 226.92698141 -16.30237865 224.55206871 C-16.31551573 218.089241 -16.32198667 211.6264202 -16.32638931 205.16358161 C-16.32915171 201.12837578 -16.33338906 197.09317235 -16.33789349 193.05796814 C-16.35008609 181.88626283 -16.36038546 170.71455945 -16.36376858 159.54284763 C-16.36398814 158.82780045 -16.36420771 158.11275326 -16.36443393 157.37603797 C-16.36465221 156.65927762 -16.36487048 155.94251726 -16.36509538 155.20403689 C-16.36553884 153.75160166 -16.36598541 152.29916642 -16.36643505 150.84673119 C-16.36665648 150.12627278 -16.36687791 149.40581437 -16.36710605 148.66352389 C-16.37105417 136.98919239 -16.38850864 125.3149233 -16.41179457 113.6406159 C-16.4355074 101.65557794 -16.44797039 89.6705713 -16.4491365 77.6855095 C-16.45005329 70.95600919 -16.45580668 64.22659019 -16.47395611 57.49711227 C-16.49039983 51.16800446 -16.49261023 44.83905118 -16.4838171 38.50992966 C-16.48304476 36.18552296 -16.48741527 33.86110809 -16.49727535 31.53672218 C-16.5099373 28.36616601 -16.50414908 25.19616193 -16.49369335 22.02560997 C-16.50174976 21.10352389 -16.50980616 20.18143781 -16.5181067 19.23140973 C-16.47307848 13.40235248 -15.71626738 8.97664482 -11.62620068 4.49248314 C-7.69305132 1.42995278 -4.95721235 0.01583401 0 0 Z M-1.12620068 71.13701439 C-1.12620068 130.53701439 -1.12620068 189.93701439 -1.12620068 251.13701439 C76.75379932 251.13701439 154.63379932 251.13701439 234.87379932 251.13701439 C234.87379932 191.73701439 234.87379932 132.33701439 234.87379932 71.13701439 C156.99379932 71.13701439 79.11379932 71.13701439 -1.12620068 71.13701439 Z " fill="#E9EAEB" transform="translate(139.12620067596436,122.86298561096191)"/>
<path d="M0 0 C33.99 0 67.98 0 103 0 C103 2.31 103 4.62 103 7 C69.01 7 35.02 7 0 7 C0 4.69 0 2.38 0 0 Z " fill="#D8574D" transform="translate(210,255)"/>
<path d="M0 0 C19.8 0 39.6 0 60 0 C60 2.64 60 5.28 60 8 C40.2 8 20.4 8 0 8 C0 5.36 0 2.72 0 0 Z " fill="#4181AF" transform="translate(201,279)"/>
<path d="M0 0 C19.8 0 39.6 0 60 0 C60 2.31 60 4.62 60 7 C40.2 7 20.4 7 0 7 C0 4.69 0 2.38 0 0 Z " fill="#DB584D" transform="translate(232,304)"/>
<path d="M0 0 C19.8 0 39.6 0 60 0 C60 2.31 60 4.62 60 7 C40.2 7 20.4 7 0 7 C0 4.69 0 2.38 0 0 Z " fill="#DB584D" transform="translate(165,304)"/>
<path d="M0 0 C15.51 0 31.02 0 47 0 C47 2.64 47 5.28 47 8 C31.49 8 15.98 8 0 8 C0 5.36 0 2.72 0 0 Z " fill="#C9564D" transform="translate(269,279)"/>
<path d="M0 0 C2.9375 2.4375 2.9375 2.4375 5 5 C5.33 5.33 5.66 5.66 6 6 C6.18040621 9.79637418 6.02974122 13.52942185 3.8046875 16.70703125 C1.36848382 18.92002255 -0.79790647 19.95789718 -4 20.625 C-7.98272198 19.79526625 -10.65074203 18.29200228 -13 15 C-14.04902782 11.9306223 -14.36799738 9.22435802 -14 6 C-10.54790763 0.28619194 -6.57021457 -1.17055547 0 0 Z " fill="#D6B352" transform="translate(217,149)"/>
<path d="M0 0 C3.5386994 1.65139305 4.81070153 2.71605229 7 6 C7.34207368 9.80556973 7.04155983 13.52417419 4.80078125 16.69921875 C2.37157801 18.92439442 0.20395077 19.95751026 -3 20.625 C-6.98272198 19.79526625 -9.65074203 18.29200228 -12 15 C-13.04902782 11.9306223 -13.36799738 9.22435802 -13 6 C-9.4935259 0.19618081 -6.59747889 -0.4472867 0 0 Z " fill="#D6B352" transform="translate(151,149)"/>
<path d="M0 0 C3.9295493 0.92685276 5.41241975 2.29808529 8.00390625 5.47265625 C8.80206186 8.6480523 8.76446448 11.29214003 8.00390625 14.47265625 C5.48556152 18.13570313 3.80106814 19.22626076 -0.43359375 20.53515625 C-4.82766964 20.4580672 -6.65939372 19.25323961 -9.99609375 16.47265625 C-11.74074823 12.98334729 -11.56059927 9.27978648 -10.99609375 5.47265625 C-8.10250338 1.041846 -5.38309693 -0.3983696 0 0 Z " fill="#DC5C51" transform="translate(181.99609375,148.52734375)"/>
<path d="M0 0 C3.16115776 1.36983503 3.9927092 1.9890638 6 5 C3.36 7.64 0.72 10.28 -2 13 C-0.34136748 16.31726504 0.5856235 17.82103117 3.125 20.25 C4.07375 21.1575 5.0225 22.065 6 23 C4.48601545 26.78496138 3.9855604 27.0072198 0 29 C-4.62 24.38 -9.24 19.76 -14 15 C-7.25 7.125 -7.25 7.125 -3.625 3.5625 C-2.93664062 2.88316406 -2.24828125 2.20382813 -1.5390625 1.50390625 C-1.03117188 1.00761719 -0.52328125 0.51132813 0 0 Z " fill="#DDDFE0" transform="translate(180,212)"/>
<path d="M0 0 C12.21 0 24.42 0 37 0 C37 2.31 37 4.62 37 7 C24.79 7 12.58 7 0 7 C0 4.69 0 2.38 0 0 Z " fill="#4287B7" transform="translate(165,255)"/>
<path d="M0 0 C1.37310707 1.29233607 2.71034824 2.62437146 4 4 C2.34908222 8.29238623 -0.73754566 10.8793915 -4 14 C-2.63629701 16.99220268 -1.05091917 19.29026529 1.125 21.75 C1.66382813 22.36359375 2.20265625 22.9771875 2.7578125 23.609375 C3.37269531 24.29773438 3.37269531 24.29773438 4 25 C2.68 26.32 1.36 27.64 0 29 C-3.87321093 27.42369323 -6.24735163 24.92252331 -9.125 21.9375 C-12.24105765 18.53546517 -12.24105765 18.53546517 -16 16 C-14.33536962 11.71357676 -11.20924163 8.91382783 -8 5.75 C-7.4534375 5.19570313 -6.906875 4.64140625 -6.34375 4.0703125 C-2.2533867 0 -2.2533867 0 0 0 Z " fill="#DCDEE0" transform="translate(182,327)"/>
<path d="M0 0 C4.07376031 1.61010527 6.76507069 4.53822271 9.75 7.625 C10.25660156 8.140625 10.76320312 8.65625 11.28515625 9.1875 C12.52803902 10.45383339 13.76465276 11.7263144 15 13 C13.34136495 17.32504836 10.128959 20.09418825 6.875 23.25 C6.31167969 23.80429688 5.74835938 24.35859375 5.16796875 24.9296875 C3.78313972 26.29104485 2.39216796 27.64614859 1 29 C-0.65 27.68 -2.3 26.36 -4 25 C-2.01266924 20.63944901 0.83823817 17.57416555 4 14 C1.36 11.36 -1.28 8.72 -4 6 C-2 2 -2 2 0 0 Z " fill="#DEE0E1" transform="translate(232,212)"/>
<path d="M0 0 C5.29012124 4.40843437 10.18808428 9.07559794 15 14 C13.37938967 17.99432781 10.60660827 20.79558321 7.625 23.8125 C6.90183594 24.5849707 6.90183594 24.5849707 6.1640625 25.37304688 C2.61057099 28.97964763 2.61057099 28.97964763 -0.2265625 29.07421875 C-2 28 -2 28 -4 24 C-1.36 21.36 1.28 18.72 4 16 C2.34136748 12.68273496 1.4143765 11.17896883 -1.125 8.75 C-2.07375 7.8425 -3.0225 6.935 -4 6 C-2.84826645 3.53199953 -1.95216435 1.95216435 0 0 Z " fill="#E0E2E3" transform="translate(225,327)"/>
<path d="M0 0 C9.9 0 19.8 0 30 0 C30 2.64 30 5.28 30 8 C20.1 8 10.2 8 0 8 C0 5.36 0 2.72 0 0 Z " fill="#C8564D" transform="translate(164,279)"/>
<path d="M0 0 C10.89 0 21.78 0 33 0 C33 2.31 33 4.62 33 7 C22.11 7 11.22 7 0 7 C0 4.69 0 2.38 0 0 Z " fill="#4287B7" transform="translate(298,304)"/>
<path d="M0 0 C2.4375 0.8125 2.4375 0.8125 5 2 C6 5 6 5 5.16723633 6.72998047 C4.72661865 7.35275879 4.28600098 7.97553711 3.83203125 8.6171875 C3.35056641 9.30683594 2.86910156 9.99648438 2.37304688 10.70703125 C1.85806641 11.42246094 1.34308594 12.13789063 0.8125 12.875 C0.31685547 13.58269531 -0.17878906 14.29039062 -0.68945312 15.01953125 C-3.34115006 18.78164817 -6.07683279 22.44196831 -9 26 C-11.475 25.01 -11.475 25.01 -14 24 C-14 19.92906888 -13.88378585 19.33540719 -11.69921875 16.25 C-11.21646484 15.5590625 -10.73371094 14.868125 -10.23632812 14.15625 C-9.4696582 13.08890625 -9.4696582 13.08890625 -8.6875 12 C-8.18798828 11.2884375 -7.68847656 10.576875 -7.17382812 9.84375 C-4.83490681 6.52279153 -2.464221 3.22955926 0 0 Z " fill="#DFE1E2" transform="translate(206,329)"/>
<path d="M0 0 C9.24 0 18.48 0 28 0 C28 2.31 28 4.62 28 7 C18.76 7 9.52 7 0 7 C0 4.69 0 2.38 0 0 Z " fill="#4286B6" transform="translate(319,255)"/>
<path d="M0 0 C9.24 0 18.48 0 28 0 C28 2.31 28 4.62 28 7 C18.76 7 9.52 7 0 7 C0 4.69 0 2.38 0 0 Z " fill="#E5E6E7" transform="translate(193,223)"/>
</svg>
